<svg xmlns="http://www.w3.org/2000/svg" class="transition duration-300 ease-in-out delay-150" viewBox="0 0 1440 490"><defs><linearGradient id="a" x1="98%" x2="2%" y1="64%" y2="36%"><stop offset="5%" stop-color="#b2071d"/><stop offset="95%" stop-color="#fff"/></linearGradient></defs><path fill="url(#a)" fill-opacity=".4" d="M0 500V318c146.5-11.018 293-22.036 413-33s213.5-21.875 316-47 214-64.464 334-91 248.5-40.268 377-54v407z" class="transition-all duration-300 ease-in-out delay-150 path-0" transform="rotate(-180 720 250)"/><path fill="url(#a)" fill-opacity=".53" d="M0 500v-57c146.786 10.732 293.571 21.464 419 13s229.5-36.125 322-67 173.429-64.964 288-94 262.786-53.018 411-77v282z" class="transition-all duration-300 ease-in-out delay-150 path-1" transform="rotate(-180 720 250)"/><path fill="url(#a)" d="M0 500v68c147.429-13.018 294.857-26.036 421-40s231-28.875 319-49 159.143-45.464 273-69 270.429-45.268 427-67v157z" class="transition-all duration-300 ease-in-out delay-150 path-2" transform="rotate(-180 720 250)"/></svg>